<mxfile host="app.diagrams.net" agent="Mozilla/5.0 (Macintosh; Intel Mac OS X 10_15_7) AppleWebKit/605.1.15 (KHTML, like Gecko) Version/18.4 Safari/605.1.15" version="26.2.14">
  <diagram id="Ht1M8jgEwFfnCIfOTk4-" name="Page-1">
    <mxGraphModel dx="1005" dy="1964" grid="1" gridSize="10" guides="1" tooltips="1" connect="1" arrows="1" fold="1" page="1" pageScale="1" pageWidth="1169" pageHeight="827" math="0" shadow="0">
      <root>
        <mxCell id="0" />
        <mxCell id="1" parent="0" />
        <mxCell id="FZdxopGPPYi9tdompR-e-6" value="Region" style="points=[[0,0],[0.25,0],[0.5,0],[0.75,0],[1,0],[1,0.25],[1,0.5],[1,0.75],[1,1],[0.75,1],[0.5,1],[0.25,1],[0,1],[0,0.75],[0,0.5],[0,0.25]];outlineConnect=0;gradientColor=none;html=1;whiteSpace=wrap;fontSize=12;fontStyle=0;container=1;pointerEvents=0;collapsible=0;recursiveResize=0;shape=mxgraph.aws4.group;grIcon=mxgraph.aws4.group_region;strokeColor=#00A4A6;fillColor=none;verticalAlign=top;align=left;spacingLeft=30;fontColor=#147EBA;dashed=1;" vertex="1" parent="1">
          <mxGeometry x="390" y="-60" width="680" height="460" as="geometry" />
        </mxCell>
        <mxCell id="FZdxopGPPYi9tdompR-e-12" value="VPC" style="points=[[0,0],[0.25,0],[0.5,0],[0.75,0],[1,0],[1,0.25],[1,0.5],[1,0.75],[1,1],[0.75,1],[0.5,1],[0.25,1],[0,1],[0,0.75],[0,0.5],[0,0.25]];outlineConnect=0;gradientColor=none;html=1;whiteSpace=wrap;fontSize=12;fontStyle=0;container=1;pointerEvents=0;collapsible=0;recursiveResize=0;shape=mxgraph.aws4.group;grIcon=mxgraph.aws4.group_vpc2;strokeColor=#8C4FFF;fillColor=none;verticalAlign=top;align=left;spacingLeft=30;fontColor=#AAB7B8;dashed=0;" vertex="1" parent="FZdxopGPPYi9tdompR-e-6">
          <mxGeometry x="25.5" y="30" width="634.5" height="410" as="geometry" />
        </mxCell>
        <mxCell id="FZdxopGPPYi9tdompR-e-14" value="Availability Zone" style="fillColor=none;strokeColor=#147EBA;dashed=1;verticalAlign=top;fontStyle=0;fontColor=#147EBA;whiteSpace=wrap;html=1;" vertex="1" parent="FZdxopGPPYi9tdompR-e-12">
          <mxGeometry x="360" y="30" width="250" height="360" as="geometry" />
        </mxCell>
        <mxCell id="FZdxopGPPYi9tdompR-e-15" value="Availability Zone" style="fillColor=none;strokeColor=#147EBA;dashed=1;verticalAlign=top;fontStyle=0;fontColor=#147EBA;whiteSpace=wrap;html=1;" vertex="1" parent="FZdxopGPPYi9tdompR-e-12">
          <mxGeometry x="20" y="30" width="240" height="360" as="geometry" />
        </mxCell>
        <mxCell id="FZdxopGPPYi9tdompR-e-8" value="Public subnet" style="points=[[0,0],[0.25,0],[0.5,0],[0.75,0],[1,0],[1,0.25],[1,0.5],[1,0.75],[1,1],[0.75,1],[0.5,1],[0.25,1],[0,1],[0,0.75],[0,0.5],[0,0.25]];outlineConnect=0;gradientColor=none;html=1;whiteSpace=wrap;fontSize=12;fontStyle=0;container=1;pointerEvents=0;collapsible=0;recursiveResize=0;shape=mxgraph.aws4.group;grIcon=mxgraph.aws4.group_security_group;grStroke=0;strokeColor=#7AA116;fillColor=#F2F6E8;verticalAlign=top;align=left;spacingLeft=30;fontColor=#248814;dashed=0;" vertex="1" parent="FZdxopGPPYi9tdompR-e-12">
          <mxGeometry x="50" y="110" width="180" height="190" as="geometry" />
        </mxCell>
        <mxCell id="FZdxopGPPYi9tdompR-e-24" value="" style="group" vertex="1" connectable="0" parent="FZdxopGPPYi9tdompR-e-8">
          <mxGeometry x="51" y="39.5" width="78" height="101" as="geometry" />
        </mxCell>
        <mxCell id="FZdxopGPPYi9tdompR-e-1" value="" style="sketch=0;points=[[0,0,0],[0.25,0,0],[0.5,0,0],[0.75,0,0],[1,0,0],[0,1,0],[0.25,1,0],[0.5,1,0],[0.75,1,0],[1,1,0],[0,0.25,0],[0,0.5,0],[0,0.75,0],[1,0.25,0],[1,0.5,0],[1,0.75,0]];outlineConnect=0;fontColor=#232F3E;fillColor=#ED7100;strokeColor=#ffffff;dashed=0;verticalLabelPosition=bottom;verticalAlign=top;align=center;html=1;fontSize=12;fontStyle=0;aspect=fixed;shape=mxgraph.aws4.resourceIcon;resIcon=mxgraph.aws4.fargate;" vertex="1" parent="FZdxopGPPYi9tdompR-e-24">
          <mxGeometry width="78" height="78" as="geometry" />
        </mxCell>
        <mxCell id="FZdxopGPPYi9tdompR-e-23" value="Fargate" style="text;html=1;align=center;verticalAlign=middle;resizable=0;points=[];autosize=1;strokeColor=none;fillColor=none;" vertex="1" parent="FZdxopGPPYi9tdompR-e-24">
          <mxGeometry x="9" y="71" width="60" height="30" as="geometry" />
        </mxCell>
        <mxCell id="FZdxopGPPYi9tdompR-e-16" value="Public subnet" style="points=[[0,0],[0.25,0],[0.5,0],[0.75,0],[1,0],[1,0.25],[1,0.5],[1,0.75],[1,1],[0.75,1],[0.5,1],[0.25,1],[0,1],[0,0.75],[0,0.5],[0,0.25]];outlineConnect=0;gradientColor=none;html=1;whiteSpace=wrap;fontSize=12;fontStyle=0;container=1;pointerEvents=0;collapsible=0;recursiveResize=0;shape=mxgraph.aws4.group;grIcon=mxgraph.aws4.group_security_group;grStroke=0;strokeColor=#7AA116;fillColor=#F2F6E8;verticalAlign=top;align=left;spacingLeft=30;fontColor=#248814;dashed=0;" vertex="1" parent="FZdxopGPPYi9tdompR-e-12">
          <mxGeometry x="395" y="110" width="180" height="190" as="geometry" />
        </mxCell>
        <mxCell id="FZdxopGPPYi9tdompR-e-29" value="" style="group" vertex="1" connectable="0" parent="FZdxopGPPYi9tdompR-e-16">
          <mxGeometry x="51" y="44.5" width="78" height="101" as="geometry" />
        </mxCell>
        <mxCell id="FZdxopGPPYi9tdompR-e-30" value="" style="sketch=0;points=[[0,0,0],[0.25,0,0],[0.5,0,0],[0.75,0,0],[1,0,0],[0,1,0],[0.25,1,0],[0.5,1,0],[0.75,1,0],[1,1,0],[0,0.25,0],[0,0.5,0],[0,0.75,0],[1,0.25,0],[1,0.5,0],[1,0.75,0]];outlineConnect=0;fontColor=#232F3E;fillColor=#ED7100;strokeColor=#ffffff;dashed=0;verticalLabelPosition=bottom;verticalAlign=top;align=center;html=1;fontSize=12;fontStyle=0;aspect=fixed;shape=mxgraph.aws4.resourceIcon;resIcon=mxgraph.aws4.fargate;" vertex="1" parent="FZdxopGPPYi9tdompR-e-29">
          <mxGeometry width="78" height="78" as="geometry" />
        </mxCell>
        <mxCell id="FZdxopGPPYi9tdompR-e-31" value="Fargate" style="text;html=1;align=center;verticalAlign=middle;resizable=0;points=[];autosize=1;strokeColor=none;fillColor=none;" vertex="1" parent="FZdxopGPPYi9tdompR-e-29">
          <mxGeometry x="9" y="71" width="60" height="30" as="geometry" />
        </mxCell>
        <mxCell id="FZdxopGPPYi9tdompR-e-32" value="" style="group" vertex="1" connectable="0" parent="FZdxopGPPYi9tdompR-e-12">
          <mxGeometry x="284.5" y="20" width="60" height="79" as="geometry" />
        </mxCell>
        <mxCell id="FZdxopGPPYi9tdompR-e-11" value="" style="sketch=0;outlineConnect=0;fontColor=#232F3E;gradientColor=none;fillColor=#8C4FFF;strokeColor=none;dashed=0;verticalLabelPosition=bottom;verticalAlign=top;align=center;html=1;fontSize=12;fontStyle=0;aspect=fixed;pointerEvents=1;shape=mxgraph.aws4.network_load_balancer;" vertex="1" parent="FZdxopGPPYi9tdompR-e-32">
          <mxGeometry width="54.84375" height="54.84375" as="geometry" />
        </mxCell>
        <UserObject label="ALB" placeholders="1" name="Variable" id="FZdxopGPPYi9tdompR-e-17">
          <mxCell style="text;html=1;strokeColor=none;fillColor=none;align=center;verticalAlign=middle;whiteSpace=wrap;overflow=hidden;" vertex="1" parent="FZdxopGPPYi9tdompR-e-32">
            <mxGeometry y="61" width="60" height="18" as="geometry" />
          </mxCell>
        </UserObject>
        <mxCell id="FZdxopGPPYi9tdompR-e-52" value="ECS Cluster" style="fillColor=none;strokeColor=#5A6C86;dashed=1;verticalAlign=top;fontStyle=0;fontColor=#5A6C86;whiteSpace=wrap;html=1;align=center;" vertex="1" parent="FZdxopGPPYi9tdompR-e-12">
          <mxGeometry x="8.5" y="98" width="615.5" height="231" as="geometry" />
        </mxCell>
        <mxCell id="FZdxopGPPYi9tdompR-e-56" value="" style="endArrow=classic;startArrow=classic;html=1;rounded=0;" edge="1" parent="FZdxopGPPYi9tdompR-e-12">
          <mxGeometry width="50" height="50" relative="1" as="geometry">
            <mxPoint x="230" y="120" as="sourcePoint" />
            <mxPoint x="280" y="70" as="targetPoint" />
          </mxGeometry>
        </mxCell>
        <mxCell id="FZdxopGPPYi9tdompR-e-58" value="" style="endArrow=classic;startArrow=classic;html=1;rounded=0;" edge="1" parent="FZdxopGPPYi9tdompR-e-12">
          <mxGeometry width="50" height="50" relative="1" as="geometry">
            <mxPoint x="384.5" y="120" as="sourcePoint" />
            <mxPoint x="344.5" y="70" as="targetPoint" />
          </mxGeometry>
        </mxCell>
        <mxCell id="FZdxopGPPYi9tdompR-e-20" value="" style="group" vertex="1" connectable="0" parent="1">
          <mxGeometry x="930" y="444" width="78" height="108" as="geometry" />
        </mxCell>
        <mxCell id="FZdxopGPPYi9tdompR-e-2" value="" style="sketch=0;points=[[0,0,0],[0.25,0,0],[0.5,0,0],[0.75,0,0],[1,0,0],[0,1,0],[0.25,1,0],[0.5,1,0],[0.75,1,0],[1,1,0],[0,0.25,0],[0,0.5,0],[0,0.75,0],[1,0.25,0],[1,0.5,0],[1,0.75,0]];outlineConnect=0;fontColor=#232F3E;fillColor=#ED7100;strokeColor=#ffffff;dashed=0;verticalLabelPosition=bottom;verticalAlign=top;align=center;html=1;fontSize=12;fontStyle=0;aspect=fixed;shape=mxgraph.aws4.resourceIcon;resIcon=mxgraph.aws4.ecs;" vertex="1" parent="FZdxopGPPYi9tdompR-e-20">
          <mxGeometry x="-13" width="78" height="78" as="geometry" />
        </mxCell>
        <mxCell id="FZdxopGPPYi9tdompR-e-19" value="ECS" style="text;html=1;align=center;verticalAlign=middle;resizable=0;points=[];autosize=1;strokeColor=none;fillColor=none;" vertex="1" parent="FZdxopGPPYi9tdompR-e-20">
          <mxGeometry x="15" y="78" width="50" height="30" as="geometry" />
        </mxCell>
        <mxCell id="FZdxopGPPYi9tdompR-e-22" value="" style="group" vertex="1" connectable="0" parent="1">
          <mxGeometry x="750" y="444" width="78" height="108" as="geometry" />
        </mxCell>
        <mxCell id="FZdxopGPPYi9tdompR-e-3" value="" style="sketch=0;points=[[0,0,0],[0.25,0,0],[0.5,0,0],[0.75,0,0],[1,0,0],[0,1,0],[0.25,1,0],[0.5,1,0],[0.75,1,0],[1,1,0],[0,0.25,0],[0,0.5,0],[0,0.75,0],[1,0.25,0],[1,0.5,0],[1,0.75,0]];outlineConnect=0;fontColor=#232F3E;fillColor=#ED7100;strokeColor=#ffffff;dashed=0;verticalLabelPosition=bottom;verticalAlign=top;align=center;html=1;fontSize=12;fontStyle=0;aspect=fixed;shape=mxgraph.aws4.resourceIcon;resIcon=mxgraph.aws4.ecr;" vertex="1" parent="FZdxopGPPYi9tdompR-e-22">
          <mxGeometry width="78" height="78" as="geometry" />
        </mxCell>
        <mxCell id="FZdxopGPPYi9tdompR-e-21" value="ECR" style="text;html=1;align=center;verticalAlign=middle;resizable=0;points=[];autosize=1;strokeColor=none;fillColor=none;" vertex="1" parent="FZdxopGPPYi9tdompR-e-22">
          <mxGeometry x="14" y="78" width="50" height="30" as="geometry" />
        </mxCell>
        <mxCell id="FZdxopGPPYi9tdompR-e-36" value="" style="sketch=0;outlineConnect=0;fontColor=#232F3E;gradientColor=none;fillColor=#232F3D;strokeColor=none;dashed=0;verticalLabelPosition=bottom;verticalAlign=top;align=center;html=1;fontSize=12;fontStyle=0;aspect=fixed;pointerEvents=1;shape=mxgraph.aws4.internet;" vertex="1" parent="1">
          <mxGeometry x="691" y="-150" width="78" height="48" as="geometry" />
        </mxCell>
        <mxCell id="FZdxopGPPYi9tdompR-e-37" value="Internet" style="text;html=1;align=center;verticalAlign=middle;resizable=0;points=[];autosize=1;strokeColor=none;fillColor=none;" vertex="1" parent="1">
          <mxGeometry x="700" y="-102" width="60" height="30" as="geometry" />
        </mxCell>
        <mxCell id="FZdxopGPPYi9tdompR-e-42" value="" style="group" vertex="1" connectable="0" parent="1">
          <mxGeometry x="550" y="454" width="60" height="94.63" as="geometry" />
        </mxCell>
        <mxCell id="FZdxopGPPYi9tdompR-e-40" value="" style="sketch=0;outlineConnect=0;fontColor=#232F3E;gradientColor=none;fillColor=#232F3D;strokeColor=none;dashed=0;verticalLabelPosition=bottom;verticalAlign=top;align=center;html=1;fontSize=12;fontStyle=0;aspect=fixed;pointerEvents=1;shape=mxgraph.aws4.source_code;" vertex="1" parent="FZdxopGPPYi9tdompR-e-42">
          <mxGeometry x="9" width="42.85" height="58.63" as="geometry" />
        </mxCell>
        <mxCell id="FZdxopGPPYi9tdompR-e-41" value="Source&lt;div&gt;code&lt;/div&gt;" style="text;html=1;align=center;verticalAlign=middle;resizable=0;points=[];autosize=1;strokeColor=none;fillColor=none;" vertex="1" parent="FZdxopGPPYi9tdompR-e-42">
          <mxGeometry y="54.629999999999995" width="60" height="40" as="geometry" />
        </mxCell>
        <mxCell id="FZdxopGPPYi9tdompR-e-43" value="GitHub Actions" style="text;html=1;align=center;verticalAlign=middle;resizable=0;points=[];autosize=1;strokeColor=none;fillColor=none;" vertex="1" parent="1">
          <mxGeometry x="402" y="474" width="100" height="30" as="geometry" />
        </mxCell>
        <mxCell id="FZdxopGPPYi9tdompR-e-44" value="" style="endArrow=classic;html=1;rounded=0;" edge="1" parent="1">
          <mxGeometry width="50" height="50" relative="1" as="geometry">
            <mxPoint x="505" y="488.5" as="sourcePoint" />
            <mxPoint x="545" y="488.5" as="targetPoint" />
            <Array as="points">
              <mxPoint x="525" y="488.5" />
            </Array>
          </mxGeometry>
        </mxCell>
        <mxCell id="FZdxopGPPYi9tdompR-e-45" value="" style="endArrow=classic;html=1;rounded=0;" edge="1" parent="1">
          <mxGeometry width="50" height="50" relative="1" as="geometry">
            <mxPoint x="670" y="488.5" as="sourcePoint" />
            <mxPoint x="710" y="488.5" as="targetPoint" />
            <Array as="points">
              <mxPoint x="690" y="488.5" />
            </Array>
          </mxGeometry>
        </mxCell>
        <mxCell id="FZdxopGPPYi9tdompR-e-46" value="Build docker image&lt;div&gt;Push image to registry&lt;/div&gt;" style="text;html=1;align=center;verticalAlign=middle;resizable=0;points=[];autosize=1;strokeColor=none;fillColor=none;" vertex="1" parent="1">
          <mxGeometry x="609" y="414" width="140" height="40" as="geometry" />
        </mxCell>
        <mxCell id="FZdxopGPPYi9tdompR-e-47" value="" style="endArrow=classic;html=1;rounded=0;" edge="1" parent="1">
          <mxGeometry width="50" height="50" relative="1" as="geometry">
            <mxPoint x="848" y="488.5" as="sourcePoint" />
            <mxPoint x="888" y="488.5" as="targetPoint" />
            <Array as="points">
              <mxPoint x="868" y="488.5" />
            </Array>
          </mxGeometry>
        </mxCell>
        <mxCell id="FZdxopGPPYi9tdompR-e-49" value="" style="group" vertex="1" connectable="0" parent="1">
          <mxGeometry x="588.38" y="505" width="50" height="60" as="geometry" />
        </mxCell>
        <mxCell id="FZdxopGPPYi9tdompR-e-4" value="" style="sketch=0;outlineConnect=0;fontColor=#232F3E;gradientColor=none;fillColor=#ED7100;strokeColor=none;dashed=0;verticalLabelPosition=bottom;verticalAlign=top;align=center;html=1;fontSize=12;fontStyle=0;aspect=fixed;pointerEvents=1;shape=mxgraph.aws4.ecs_task;" vertex="1" parent="FZdxopGPPYi9tdompR-e-49">
          <mxGeometry x="11.120000000000005" width="27.75" height="36" as="geometry" />
        </mxCell>
        <mxCell id="FZdxopGPPYi9tdompR-e-27" value="Task" style="text;html=1;align=center;verticalAlign=middle;resizable=0;points=[];autosize=1;strokeColor=none;fillColor=none;" vertex="1" parent="FZdxopGPPYi9tdompR-e-49">
          <mxGeometry y="30" width="50" height="30" as="geometry" />
        </mxCell>
        <mxCell id="FZdxopGPPYi9tdompR-e-59" value="" style="endArrow=classic;startArrow=classic;html=1;rounded=0;" edge="1" parent="1">
          <mxGeometry width="50" height="50" relative="1" as="geometry">
            <mxPoint x="728.5" y="-10" as="sourcePoint" />
            <mxPoint x="728.5" y="-80" as="targetPoint" />
          </mxGeometry>
        </mxCell>
      </root>
    </mxGraphModel>
  </diagram>
</mxfile>
